<svg xmlns="http://www.w3.org/2000/svg" xmlns:xlink="http://www.w3.org/1999/xlink" version="1.1" x="0px" y="0px" viewBox="0 0 360 450" enable-background="new 0 0 360 360" xml:space="preserve"><rect x="192.689" y="112.654" transform="matrix(0.9998 0.0203 -0.0203 0.9998 2.9794 -3.9519)" fill="#000000" width="5.999" height="63.562"/><path fill="#000000" d="M327.095,299.923H74.586c0,0,39.381-26.012,0-38.025c-59.525-18.148,310.599-21.331,252.509,0  C280.758,278.918,327.095,299.923,327.095,299.923z"/><path fill="#000000" d="M190.669,262.484c-83.481,0-142.467,2.07-142.467,2.07S79.52,125.859,199.351,129.887  c123.355,4.145,151.159,134.668,151.159,134.668S274.147,262.484,190.669,262.484z"/><path fill="#000000" d="M123.37,253.631c-36.893,0-64.81,2.31-64.81,2.31s7.301-27.131,22.848-47.626  c26.927-35.501,59.568-37.235,59.568-37.235s-34.897,16.647-47.333,41.565c-14.682,29.442,100.365,41.96,100.365,41.96  S160.263,253.631,123.37,253.631z"/><path fill="#000000" d="M20.289,276.191l-5.953-0.747c0.113-0.907,2.903-22.53,13.471-49.628  c9.786-25.093,28.37-59.618,61.331-81.593l3.328,4.992C31.819,189.65,20.397,275.33,20.289,276.191z"/><path fill="#000000" d="M110.627,138.598c4.362,6.843-3.354,17.706-13.623,24.265c-10.269,6.559-29.519,12.097-33.896,5.249  c0,0,7.495-15.791,21.006-27.097C97.426,129.88,106.251,131.75,110.627,138.598z"/><rect x="94.171" y="192.995" transform="matrix(0.014 0.9999 -0.9999 0.014 371.6013 174.7957)" fill="#000000" width="6.001" height="165.645"/><path fill="#000000" d="M194.366,116.482c-12.729,0-21.71,0.315-21.71,0.315s4.77-21.137,23.034-20.526  c18.8,0.633,23.041,20.526,23.041,20.526S207.088,116.482,194.366,116.482z"/><path fill="#000000" d="M332.879,300.922c0,2.767-2.539,5.005-5.675,5.005H70.989c-3.132,0-5.667-2.238-5.667-5.005l0,0  c0-2.761,2.536-5.002,5.667-5.002h256.215C330.34,295.92,332.879,298.161,332.879,300.922L332.879,300.922z"/><path fill="#000000" d="M85.304,128.312C98,99.39,131.515,88.247,160.07,99.986c2.983,1.227,4.269-3.613,1.329-4.821  c-30.421-12.507-66.911-0.134-80.412,30.624C79.704,128.711,84.011,131.259,85.304,128.312L85.304,128.312z"/><path fill="#000000" d="M50.708,116.283c20.431-47.131,75.881-65.642,122.234-46.357c2.977,1.238,4.261-3.602,1.329-4.821  C126.062,45.047,67.616,64.796,46.391,113.76C45.122,116.686,49.429,119.235,50.708,116.283L50.708,116.283z"/><path fill="#000000" d="M11.648,106.289c13.963-32.424,40.417-57.519,73.328-70.2c33.889-13.059,71.832-11.471,105.149,2.479  c2.974,1.245,4.258-3.595,1.33-4.821c-34.261-14.344-72.958-15.528-107.809-2.479C49.569,44.027,21.725,70.34,7.331,103.765  C6.07,106.693,10.376,109.243,11.648,106.289L11.648,106.289z"/></svg>