<svg xmlns="http://www.w3.org/2000/svg" xmlns:xlink="http://www.w3.org/1999/xlink" version="1.1" x="0px" y="0px" viewBox="0 0 100 125" enable-background="new 0 0 100 100" xml:space="preserve"><g><g><path fill="#000000" d="M84.79,48.587L67.909,31.706c-0.375-0.375-0.884-0.586-1.414-0.586h-32.99    c-0.53,0-1.039,0.211-1.414,0.586L15.21,48.587c-0.375,0.375-0.586,0.884-0.586,1.414s0.211,1.039,0.586,1.414l16.88,16.879    c0.375,0.375,0.884,0.586,1.414,0.586h32.991c0.53,0,1.039-0.211,1.414-0.586L84.79,51.415c0.375-0.375,0.586-0.884,0.586-1.414    S85.165,48.962,84.79,48.587z M65.667,64.88H50.124H34.333l-14.88-14.879L34.333,35.12h31.333l14.881,14.881L65.667,64.88z"/><circle fill="#000000" cx="32.498" cy="50" r="3.625"/><circle fill="#000000" cx="67.501" cy="49.999" r="3.625"/></g></g></svg>